<svg xmlns="http://www.w3.org/2000/svg" viewBox="0 0 82.51 51.24"><defs><style>.a{fill:#a2d9f2;}.b{fill:none;}.c{fill:#1a1f3a;}.d{fill:#ed6d23;}.e{fill:#1eb7eb;}</style></defs><path class="a" d="M81.07,11.13c7,12,.71,25.93-21.54,35-24.5,10-55,8-57.45,1.48-4.25-11.28,8.53-28,30.34-38.06S75,.7,81.07,11.13Z" transform="translate(-1.27 -2.62)"/><path class="b" d="M81.07,11.13c7,12,.71,25.93-21.54,35-24.5,10-55,8-57.45,1.48-4.25-11.28,8.53-28,30.34-38.06S75,.7,81.07,11.13Z" transform="translate(-1.27 -2.62)"/><circle class="c" cx="53.25" cy="29.35" r="21.89"/><path class="d" d="M41.32,47a8.13,8.13,0,0,0,4.31-1,31.23,31.23,0,0,0,10.92-8.91c.81-1,1.65-1.93,2.6-2.94l.84-.92c3.35-3.68,9.58-10.5,14.88-8.38.16.07.29.18.45.26a.91.91,0,0,1-.07-.14h0c-1.54-3.85-3.5-5.65-4.77-6.44-2.7-1.68-6.08-1.49-9.24.53-4.26,2.71-7.51,6.22-10.66,9.63-3.33,3.6-6.49,7-10.66,9.38a6.36,6.36,0,0,1-6.13.49,1,1,0,0,0-.13-.09C35.76,44.62,38.14,46.58,41.32,47Z" transform="translate(-1.27 -2.62)"/><path class="d" d="M75.44,38.29c-1.19.69-3.83,2.49-7.9,8a23.74,23.74,0,0,1-9.09,7.09,21.85,21.85,0,0,0,17-15.1Z" transform="translate(-1.27 -2.62)"/><path class="d" d="M74.12,27.65c-3.45-.46-9.54,5.33-11.74,7.75l-.88,1c-.92,1-1.71,1.91-2.5,2.83a34.13,34.13,0,0,1-11.9,9.68A11.81,11.81,0,0,1,42.34,50,21.92,21.92,0,0,0,48,52.76a8,8,0,0,0,.87.11C53.13,53,59.31,51,65,44.17c5.27-6.41,8.77-9.31,11.24-9.56a21.52,21.52,0,0,0,.12-4.09C76.08,28.17,75.67,27.86,74.12,27.65Z" transform="translate(-1.27 -2.62)"/><path class="e" d="M35.24,36a4.74,4.74,0,0,0,3.13-.76c3.73-2.12,6.72-5.35,9.89-8.77s6.68-7.21,11.29-10.16a13.07,13.07,0,0,1,7.82-2.16c-.35-.19-.84-.59-1-.68-8.7-4.23-15.25-.05-18.74,2.82-1.87,1.54-3.94,3.61-5.91,5.59-4.58,4.63-6.78,6.67-8.73,6.37C32.64,30.5,31.87,35.56,35.24,36Z" transform="translate(-1.27 -2.62)"/><path class="e" d="M39.07,16.42a21.64,21.64,0,0,0-5.21,8.4c1.43-1.12,4-3.56,5.58-5.19a69.84,69.84,0,0,1,5.34-5.11c1.81-1.49,4.52-3.81,8.49-4.44A21.76,21.76,0,0,0,39.07,16.42Z" transform="translate(-1.27 -2.62)"/></svg>