<svg xmlns="http://www.w3.org/2000/svg" viewBox="0 0 256.02 256.02"><defs><style>.a{fill:#06183d;}.b{fill:#cccccc;}.c{fill:#fefefe;}</style></defs><path class="a" d="M128.19,0C198.12-.33,256,56.34,256,128c0,70-56.25,129.33-130.9,128A127.79,127.79,0,0,1,0,125.26C1.15,57.06,57-.44,128.19,0Z" transform="translate(0.02 0)"/><path class="b" d="M189.29,141.8c-1.89,5.41-3.57,10.73-5.58,15.91A110.78,110.78,0,0,1,164.79,190c-8.25,9.66-18,17.34-30.12,21.56-9.57,3.32-19.22,4.11-29,.86-3.55-1.18-7.26-2-10.67-3.44-8.14-3.53-14-9.76-18.48-17.24s-7-15.8-8.45-24.43A114.29,114.29,0,0,1,66.76,146c.67-25,7.21-48.32,21.06-69.36,7.33-11.14,16.29-20.63,28-27.25,7.57-4.26,15.63-7.19,24.36-7.77a33.5,33.5,0,0,1,8.88.59A101.29,101.29,0,0,1,162,45.71c6.94,2.43,11.64,7.54,15.3,13.73a50.67,50.67,0,0,1,6.62,20.1,108.82,108.82,0,0,1-12.55,65.9c-3.92,7.23-8.81,13.69-15.54,18.59a32,32,0,0,1-12.74,5.77,12,12,0,0,1-5.89-.29c-2.34-.7-4.7-1.36-7.06-1.95a7.76,7.76,0,0,1-4.85-3.21,6.22,6.22,0,0,1-.32-.56c-1.24,2-2.31,3.78-3.49,5.52a28.66,28.66,0,0,1-6.44,7.1c-2.6,1.94-5.43,2.93-8.69,2a41.93,41.93,0,0,0-5.4-1.5c-4.92-.71-7.1-4-8.28-8.35-1.24-4.62-1.13-9.32-.85-14a109.75,109.75,0,0,1,7.51-34.1c4.31-10.88,9.66-21.21,17-30.38a27.25,27.25,0,0,1,6.84-6.23c2.63-1.62,5.36-2.29,8.41-1.21,1.75.62,3.59,1,5.56,1.55-.07-1.71,1.24-1.79,2.38-2.14,4.48-1.4,9-2.85,13.44-4.24a2.84,2.84,0,0,1,1.53-.08c2.7.68,5.38,1.44,8.14,2.19q-1.23,5.64-2.44,11.21-5.24,24.08-10.43,48.14c-.9,4.18-1.65,8.39-2.41,12.6a35.41,35.41,0,0,0-.28,3.71c.51-.38.84-.59,1.13-.84,3.78-3.27,6.56-7.34,9.17-11.54a89.72,89.72,0,0,0,12.76-33.39c2-12.37,2.32-24.73-1.06-36.95-1.78-6.46-4.67-12.4-9.44-17.19a35.31,35.31,0,0,0-6.27-4.75,6.33,6.33,0,0,0-3.33-.45A45.86,45.86,0,0,0,132.16,55c-9.84,4.53-17.75,11.47-24.29,20C98,87.85,91.49,102.28,87.33,117.83A133.37,133.37,0,0,0,83,158.25c.39,9.29,1.91,18.39,5.7,27a42.18,42.18,0,0,0,14.88,18.37,14.66,14.66,0,0,0,9.79,2.31c11.67-.83,21.56-5.79,30.44-13.09,13.54-11.14,22.57-25.37,28.44-41.73,1.11-3.09,2-6.26,3.05-9.37.14-.42.63-.72,1-1.08h.1a9.59,9.59,0,0,1,8.16-.16C185.94,141,187.45,141.29,189.29,141.8Z" transform="translate(0.02 0)"/><path class="b" d="M133.46,143a4.76,4.76,0,0,1,.3,1.49c-.33,2.3-.78,4.58-1.1,6.88-.48,3.37-.93,6.76-.11,10.13,1.5,6.2,4.93,8.61,10.87,7.38a33.46,33.46,0,0,0,16-8.71c6.22-5.76,10.62-12.81,14.19-20.4a108.34,108.34,0,0,0,9.86-58.35,52.3,52.3,0,0,0-6.66-21.17c-6.39-11-15.79-16.4-28.62-15.35a54.7,54.7,0,0,0-17.38,4.66C119,54.67,109.5,62.75,101.74,72.9,84.79,95.1,76.9,120.44,76.15,148.15c-.12,4.35.13,8.71.37,13.06a78.66,78.66,0,0,0,3.23,18.33c2.81,9.43,7.34,17.85,14.65,24.6a34.27,34.27,0,0,0,22.54,9.44,49.3,49.3,0,0,0,20.88-4.08c11-4.55,19.91-12,27.46-21.09,9.89-11.91,16.52-25.55,21.24-40.18.56-1.72,1.06-3.46,1.64-5.35-.84.2-1.42.39-2,.47-1.09.15-1.54.74-1.83,1.81-.63,2.39-1.42,4.75-2.23,7.09-5.76,16.58-14.59,31.16-28,42.68-8.77,7.5-18.55,12.87-30.25,14.1a30.57,30.57,0,0,1-19.2-3.83c-7.83-4.6-13-11.48-16.55-19.67-3.82-8.79-5.25-18.09-5.66-27.57a136.84,136.84,0,0,1,1-22.89A130.83,130.83,0,0,1,98.57,88.15c5.33-9.69,11.75-18.54,20.37-25.61,8.92-7.31,18.92-12.23,30.62-12.92a23.62,23.62,0,0,1,18.55,6.91A38.83,38.83,0,0,1,178,73.35a75,75,0,0,1,2.84,25.71,101.19,101.19,0,0,1-2.62,19.37,91.47,91.47,0,0,1-16.83,35c-2.31,3-4.94,5.66-8.54,7.1a5.74,5.74,0,0,1-2.42.47c-1.78-.12-2.71-1.41-3.37-2.91a9.81,9.81,0,0,1-.33-5.65c.7-4.29,1.47-8.58,2.39-12.83q5.41-25.26,10.94-50.49c.57-2.64,1.13-5.28,1.73-8.06-.52.14-.88.22-1.23.33-3.67,1.16-7.29,2.5-11,3.43-2.25.56-3.26,1.57-3.51,3.88a70.68,70.68,0,0,1-1.53,7.61c-.05.24-.3.43-.45.64a3.54,3.54,0,0,1-.41-.67,1.51,1.51,0,0,1,0-.56,50.92,50.92,0,0,0-1.54-6.9c-1.1-3-3.68-4.21-6.77-3.17a18.35,18.35,0,0,0-4.83,2.51,34.93,34.93,0,0,0-8.14,9c-10.61,15.69-17.82,32.71-20.34,51.59a75,75,0,0,0-.63,18.39,17.7,17.7,0,0,0,2.8,8.14,5.32,5.32,0,0,0,5.5,2.53,12.35,12.35,0,0,0,3.37-1,18.16,18.16,0,0,0,6-5.23c4.36-5.41,7.36-11.59,10.11-17.91C130.6,150.21,131.94,146.71,133.46,143Z" transform="translate(0.02 0)"/><path class="c" d="M133.46,143c-1.52,3.75-2.86,7.25-4.35,10.68-2.75,6.32-5.75,12.5-10.11,17.91a18.16,18.16,0,0,1-6,5.23,12.35,12.35,0,0,1-3.37,1,5.32,5.32,0,0,1-5.5-2.53,17.7,17.7,0,0,1-2.8-8.14,75,75,0,0,1,.63-18.39c2.52-18.88,9.73-35.9,20.34-51.59a34.93,34.93,0,0,1,8.14-9,18.35,18.35,0,0,1,4.83-2.51c3.09-1,5.67.12,6.77,3.17a50.92,50.92,0,0,1,1.54,6.9v.56A3.9,3.9,0,0,0,144,97c.15-.21.4-.4.45-.64A70.44,70.44,0,0,0,146,88.74c.25-2.31,1.26-3.32,3.51-3.88,3.73-.93,7.35-2.27,11-3.43.35-.11.71-.19,1.23-.33-.6,2.78-1.16,5.42-1.73,8.06q-5.47,25.25-10.94,50.49c-.92,4.25-1.69,8.54-2.39,12.83a9.81,9.81,0,0,0,.33,5.65c.66,1.5,1.59,2.79,3.37,2.91a5.74,5.74,0,0,0,2.42-.47c3.6-1.44,6.23-4.13,8.54-7.1a91.47,91.47,0,0,0,16.83-35,101.19,101.19,0,0,0,2.62-19.37A74.93,74.93,0,0,0,178,73.35a38.88,38.88,0,0,0-9.86-16.82,23.62,23.62,0,0,0-18.55-6.91c-11.7.69-21.7,5.61-30.62,12.92-8.62,7.07-15,15.92-20.37,25.61a130.6,130.6,0,0,0-15.2,46.92,136.84,136.84,0,0,0-1,22.89c.41,9.48,1.84,18.78,5.66,27.57,3.56,8.19,8.72,15.07,16.55,19.67a30.57,30.57,0,0,0,19.2,3.83c11.7-1.23,21.48-6.6,30.25-14.1,13.46-11.52,22.29-26.1,28.05-42.68.81-2.34,1.6-4.7,2.23-7.09.29-1.07.74-1.66,1.83-1.81.6-.08,1.18-.27,2-.47-.58,1.89-1.08,3.63-1.64,5.35-4.72,14.63-11.35,28.27-21.24,40.18-7.55,9.1-16.42,16.54-27.46,21.09A49.3,49.3,0,0,1,117,213.58a34.27,34.27,0,0,1-22.54-9.44c-7.31-6.75-11.84-15.17-14.65-24.6a78.66,78.66,0,0,1-3.23-18.33c-.24-4.35-.49-8.71-.37-13.06.75-27.71,8.64-53.05,25.59-75.25C109.5,62.75,119,54.67,130.83,49.52a54.7,54.7,0,0,1,17.38-4.66c12.83-1,22.23,4.37,28.62,15.35a52.3,52.3,0,0,1,6.66,21.17,108.34,108.34,0,0,1-9.86,58.35c-3.57,7.59-8,14.64-14.19,20.4a33.46,33.46,0,0,1-16,8.71c-5.94,1.23-9.37-1.18-10.87-7.38-.82-3.37-.37-6.76.11-10.13.32-2.3.77-4.58,1.1-6.88A4.77,4.77,0,0,0,133.46,143Z" transform="translate(0.02 0)"/><path class="c" d="M141.3,101c-.07-.88-.14-2.56-.37-4.22a12.49,12.49,0,0,0-.77-2.75c-1.21-3.1-3.34-3.54-5.69-1.2a3.64,3.64,0,0,0-.61.69,59.08,59.08,0,0,0-4,7,179.38,179.38,0,0,0-12.59,47.68c-.32,2.84-.56,5.73.44,8.52,1.12,3.11,3.15,3.65,5.36,1.19A29.93,29.93,0,0,0,127,152.3a129,129,0,0,0,9.34-22.59A99.39,99.39,0,0,0,141.3,101Z" transform="translate(0.02 0)"/><path class="b" d="M141.3,101a99.37,99.37,0,0,1-5,28.75A128.82,128.82,0,0,1,127,152.3a29.88,29.88,0,0,1-3.92,5.61c-2.21,2.46-4.24,1.92-5.36-1.19-1-2.79-.76-5.68-.44-8.52a179.38,179.38,0,0,1,12.59-47.68,59.08,59.08,0,0,1,4-7,3.64,3.64,0,0,1,.61-.69c2.35-2.34,4.48-1.9,5.69,1.2a12.49,12.49,0,0,1,.77,2.75C141.16,98.4,141.23,100.08,141.3,101Z" transform="translate(0.02 0)"/><path class="a" d="M131.69,98.12a172.26,172.26,0,0,0-13.76,50.78C125.91,132.89,131.75,116.31,131.69,98.12Z" transform="translate(0.02 0)"/></svg>