<svg xmlns="http://www.w3.org/2000/svg" viewBox="0 0 256.02 256.02"><defs><style>.a{fill:#cccccc;}.b{fill:#fefefe;}.c{fill:#06183d;}</style></defs><path class="a" d="M169.89,44.54a9.24,9.24,0,0,1-1.25-.54c-4.33-2.79-8.48-3.43-13.27-.46q-15,9.26-30.37,17.78c-9.08,5.06-13.07,12.48-13,22.87.23,29.64.06,59.28.14,88.91a4.16,4.16,0,0,1-2.42,4.24c-9.51,5.27-19,10.65-28.4,16-.55.31-1.51.43-1.42,1.33s.94.72,1.48,1q17.6,7.8,35.19,15.55c1.13.5,2.2,1.25,3.54.95a4.85,4.85,0,0,1,1.44.76c1.87,2,4.41,1.8,6.87.39,12.75-7.3,25.39-14.8,38.2-22,6.49-3.62,9.44-8.85,9.43-16.19q-.09-60,0-119.91C176.1,50.3,175.06,46.32,169.89,44.54Z" transform="translate(0.02 0)"/><path class="a" d="M128.19,0C198.12-.33,256,56.34,256,128c0,70-56.25,129.33-130.9,128A127.79,127.79,0,0,1,0,125.26C1.15,57.06,57-.44,128.19,0Z" transform="translate(0.02 0)"/><path class="b" d="M169.89,44.54c5.17,1.78,6.21,5.76,6.2,10.7q-.14,60,0,119.91c0,7.34-2.94,12.57-9.43,16.19-12.81,7.17-25.45,14.67-38.2,22-2.46,1.41-5,1.66-6.87-.39a4.85,4.85,0,0,0-1.44-.76,12,12,0,0,1-1.25-5.64V85.21c0-.93.14-1.86.21-2.79a8.53,8.53,0,0,1,.27-1.73,19.16,19.16,0,0,1,9.36-14.14C139,60.34,149.31,54.4,159.62,48.37,162.82,46.5,165.79,44,169.89,44.54Zm1,70.41V65.33c0-.68.33-1.59-.3-2-.78-.49-1.39.36-2,.75-3.67,2.23-7.3,4.54-11,6.67C147.17,76.69,137,82.9,126.72,89a3.68,3.68,0,0,0-2,3.7q.07,47.26,0,94.53c0,1.33.07,2.67,0,4-.11,1.57.68,1.54,1.67,1s2-1.28,3-1.87q19.71-11.3,39.44-22.57a3.74,3.74,0,0,0,2.13-3.73c-.09-16.35-.05-32.73-.05-49.06ZM153.7,188.28c.06-1.43-.32-2.7-1.7-3.3s-2.6.2-3.48,1.23a8.47,8.47,0,0,0-2.08,4.84c-.11,1.43.18,2.89,1.7,3.52s2.56-.15,3.48-1.22a8.52,8.52,0,0,0,2.1-5.07Zm-13-113.11c.16-.07.38-.14.58-.25l13.62-8.14c.56-.33,1.23-.74.83-1.43-.52-.91-1.26-.2-1.8.11-2,1.09-3.89,2.25-5.83,3.4-2.41,1.43-4.82,2.85-7.21,4.32a1.48,1.48,0,0,0-.92,1.49C140,75.05,140.27,75.16,140.67,75.17Z" transform="translate(0.02 0)"/><path class="c" d="M119.12,82.39c-.07.93-.21,1.86-.21,2.79V206.52a12,12,0,0,0,1.25,5.64c-1.34.3-2.41-.45-3.54-.95Q99,203.46,81.4,195.66c-.54-.24-1.4-.19-1.48-1s.87-1,1.42-1.33c9.45-5.38,18.89-10.76,28.4-16a4.16,4.16,0,0,0,2.42-4.24c-.08-29.63.09-59.27-.14-88.91-.09-10.39,3.9-17.81,13-22.87q15.38-8.56,30.37-17.78c4.79-3,8.94-2.33,13.27.46a9.24,9.24,0,0,0,1.25.54c-4.1-.53-7.07,2-10.27,3.83-10.31,6-20.66,12-30.87,18.15a19.16,19.16,0,0,0-9.36,14.14Z" transform="translate(0.02 0)"/><path class="c" d="M153.72,188.28a8.58,8.58,0,0,1-2.08,5.07c-.92,1.07-2.06,1.82-3.48,1.22s-1.81-2.09-1.7-3.52a8.47,8.47,0,0,1,2.08-4.84c.88-1,2-1.87,3.48-1.23S153.78,186.85,153.72,188.28Z" transform="translate(0.02 0)"/><path class="a" d="M170.91,115q0,24.57.05,49.14a3.74,3.74,0,0,1-2.13,3.73q-19.74,11.25-39.44,22.57c-1,.59-1.94,1.32-3,1.87s-1.78.56-1.67-1c.09-1.32,0-2.66,0-4V92.78a3.68,3.68,0,0,1,2-3.7C137,82.9,147.17,76.69,157.53,70.76c3.73-2.13,7.36-4.44,11-6.67.65-.39,1.26-1.24,2-.75s.3,1.31.3,2Q170.92,90.14,170.91,115Z" transform="translate(0.02 0)"/><path class="a" d="M140.67,75.17c-.4,0-.68-.12-.73-.5a1.48,1.48,0,0,1,.92-1.49c2.39-1.47,4.8-2.89,7.21-4.32,1.94-1.15,3.87-2.31,5.83-3.4.54-.31,1.28-1,1.8-.11.4.69-.27,1.1-.83,1.43l-13.62,8.14Z" transform="translate(0.02 0)"/></svg>