<svg xmlns="http://www.w3.org/2000/svg" viewBox="0 0 256.04 256.02"><defs><style>.a{fill:#06183d;}.b{fill:#fefefe;}.c{fill:#cccccc;}</style></defs><path class="a" d="M128.22,0C197.13-1.31,257.73,57.76,256,131.14,254.4,197.68,198.87,257.48,125,256,57.45,254.59.19,198.75,0,127.88-.19,57.75,58-1.25,128.22,0Z" transform="translate(0 0.02)"/><path class="a" d="M43.11,83c-1.65.69-.92,2.15-.92,3.25q-.06,43.38,0,86.76c0,2.48-.75,3.84-3,4.78-4,1.7-8,3.61-12,5.45-.75.34-2,.36-2,1.35s1.24,1,2,1.33c12,5.23,24,10.38,36,15.64q29,12.72,57.87,25.54c.77.35,1.57.79,2.4.09a12.32,12.32,0,0,0,4.32-2.14q13.77-8.67,27.57-17.31,19.76-12.39,39.53-24.77,14.9-9.37,29.74-18.81c6.21-3.92,12.47-7.78,18.63-11.78,3.23-2.1,2.92-6.17-.47-7.89-7.87-4-15.73-8.05-23.63-12q-23.72-11.93-47.49-23.76a4.18,4.18,0,0,1-2.73-4.45c.36-9.36-.13-18.73.49-28.11s.5-18.54.65-27.82c.08-5.26-.15-10.54.11-15.8.19-3.81.45-7.61.51-11.43a2.92,2.92,0,0,0-2-3.06c-2.61-1.22-4.41.26-6.55,1.41-8.64,4.63-17.43,9-26.1,13.56-13.66,7.21-27.24,14.59-40.91,21.8C79.13,63.27,63,71.57,47,80,45.65,80.79,43.63,81,43.11,83Z" transform="translate(0 0.02)"/><path class="b" d="M43.11,83c.52-2,2.54-2.24,4-3,16-8.47,32.08-16.77,48.09-25.21,13.67-7.21,27.25-14.59,40.91-21.8,8.67-4.58,17.46-8.93,26.1-13.56,2.14-1.15,3.94-2.63,6.55-1.41a2.92,2.92,0,0,1,2,3.06c-.06,3.82-.32,7.62-.51,11.43-.26,5.26,0,10.54-.11,15.8-.15,9.28,0,18.57-.65,27.82s-.13,18.75-.49,28.11a4.18,4.18,0,0,0,2.73,4.45q23.79,11.81,47.49,23.76,11.85,6,23.63,12c3.39,1.72,3.7,5.79.47,7.89-6.16,4-12.42,7.86-18.63,11.78q-14.92,9.48-29.8,18.88-19.74,12.41-39.53,24.77-13.8,8.64-27.57,17.31a12.32,12.32,0,0,1-4.32,2.14c-.58-2,1-4.53-1.82-6.1-8.92-5-17.73-10.13-26.59-15.22q-22.69-13.05-45.42-26.09a4.3,4.3,0,0,1-2.5-4.27c0-20.11-.11-40.21-.2-60.31,0-8.71-.19-17.43,0-26.13C47,86,46,84,43.11,83Zm10.94,45.8h0V163c0,3,.17,3.13,2.73,1.64Q76.24,153.32,95.65,142l66-38.42a3.9,3.9,0,0,0,2.2-3.85c.16-7.93.07-15.86.39-23.8.53-13.27.12-26.58.75-39.87.14-2.84-.41-3.11-2.86-1.8L140,46.16,100,67.62C85.29,75.51,70.63,83.46,55.89,91.24c-1.66.87-1.85,1.87-1.85,3.37Q54.07,111.71,54.05,128.8Zm140.76,9.61a4.57,4.57,0,0,0-2.11-1.7c-6.27-3.63-12.78-6.93-18.72-11-4.32-3-7.5-2.59-11.86,0-17.68,10.57-35.62,20.69-53.46,31-11.15,6.41-22.27,12.9-33.43,19.29-1.42.82-2.07,1.31-.14,2.41,8,4.54,15.85,9.17,23.75,13.8a2.53,2.53,0,0,0,2.9,0c8.32-4.85,16.68-9.63,25-14.46q22.79-13.17,45.57-26.38Zm-50.19,41.72c4.41,2.57,8.45,4.89,12.45,7.29a1.94,1.94,0,0,0,2.31,0c7-4.08,14.05-8.08,21.09-12.1,1.52-.87,2.35-1.61.14-2.8-3.35-1.81-6.62-3.79-9.88-5.76a3,3,0,0,0-3.45.15c-4.18,2.48-8.42,4.87-12.62,7.32C151.39,176.12,148.14,178.06,144.62,180.13ZM107.8,57.45c.89-.15,1.14-.88,1.33-1.61.13-.51,0-1-.64-1-.95-.08-1.34.56-1.48,1.37A1,1,0,0,0,107.8,57.45Z" transform="translate(0 0.02)"/><path class="c" d="M43.11,83C46,84,47,86,46.9,89.1c-.15,8.7,0,17.42,0,26.13.09,20.1.2,40.2.2,60.31a4.3,4.3,0,0,0,2.5,4.27q22.75,13,45.42,26.09c8.86,5.09,17.67,10.24,26.59,15.22,2.8,1.57,1.24,4.07,1.82,6.1-.83.7-1.63.26-2.4-.09L63.2,201.59c-12-5.26-24-10.41-36-15.64-.73-.32-2-.38-2-1.33s1.23-1,2-1.35c4-1.84,7.94-3.75,12-5.45,2.24-.94,3-2.3,3-4.78q-.15-43.38,0-86.76C42.19,85.18,41.46,83.72,43.11,83Z" transform="translate(0 0.02)"/><path class="a" d="M54.05,128.8V94.61c0-1.5.19-2.5,1.85-3.37C70.63,83.46,85.29,75.51,100,67.62l40-21.46,22.14-11.87c2.45-1.31,3-1,2.86,1.8-.63,13.29-.22,26.6-.75,39.87-.32,7.94-.23,15.87-.39,23.8a3.9,3.9,0,0,1-2.2,3.85q-33.06,19.14-66,38.42-19.41,11.31-38.83,22.59c-2.56,1.49-2.73,1.4-2.73-1.64V128.8Z" transform="translate(0 0.02)"/><path class="c" d="M194.81,138.41l-22.48,13-45.57,26.38c-8.34,4.83-16.7,9.61-25,14.46a2.53,2.53,0,0,1-2.9,0c-7.9-4.63-15.8-9.26-23.75-13.8-1.93-1.1-1.28-1.59.14-2.41,11.16-6.43,22.28-12.92,33.43-19.36,17.84-10.31,35.78-20.43,53.46-31,4.36-2.6,7.54-3,11.86,0,5.94,4.11,12.45,7.41,18.72,11A4.59,4.59,0,0,1,194.81,138.41Z" transform="translate(0 0.02)"/><path class="c" d="M144.62,180.13c3.52-2.07,6.77-4,10-5.92,4.2-2.45,8.44-4.84,12.62-7.32a3,3,0,0,1,3.45-.15c3.26,2,6.53,3.95,9.88,5.76,2.21,1.19,1.38,1.93-.14,2.8-7,4-14.08,8-21.09,12.1a1.91,1.91,0,0,1-2.31,0C153.07,185,149,182.7,144.62,180.13Z" transform="translate(0 0.02)"/><path class="a" d="M107.8,57.45c-.75-.14-.88-.69-.79-1.28.14-.81.53-1.45,1.48-1.37a.72.72,0,0,1,.64,1C108.94,56.57,108.69,57.3,107.8,57.45Z" transform="translate(0 0.02)"/></svg>