<svg xmlns="http://www.w3.org/2000/svg" viewBox="0 0 256.02 256.02"><defs><style>.a{fill:#cccccc;}.b{fill:#06183d;}.c{fill:#fefefe;}</style></defs><path class="a" d="M128.19,0C198.12-.33,256,56.34,256,128c0,70-56.25,129.33-130.9,128A127.79,127.79,0,0,1,0,125.26C1.15,57.06,57-.44,128.19,0Z" transform="translate(0.02 0)"/><path class="b" d="M138,68s0-6-.15-10c-11.27-6-57-31-57-31V38l14,8,.6,75.86,8,4.14s.4-73,.4-76c1,1,10,7,10,7l-7,39s-.57,27.93-.58,31.6c6.73,3.91,12.22,6.66,17.23,9.4.08-3.13.5-77,.5-77s2.94,1.84,3.35,2c0,3-1.5,76.3-1.5,76.3S127,139,131,141c.11-.56,11.82-42.56,13.85-51,1.25-5.2,4.16-7.33,9-9.6,12.44-5.84,38.84-19,39.55-19.4-.26-.26-21.55-8-34.55-13-4,2-14,7-17.1,8.71C142,60.84,142,66,142,66Z" transform="translate(0.02 0)"/><path class="c" d="M144.6,91.24c1.4-6.24,4-8.38,8.84-10.65,12.45-5.84,24.69-12.11,37-18.21.75-.37,2.14-.94,2.85-1.38v68.9c-.33,0-3.87-1-5.69-.14-6.09,2.85-9.29,7.9-11.26,14a4.53,4.53,0,0,1-1.87,2.64c-3.63,2.33-7.88,5.32-11.47,7.7-4-3-8.1-3.53-11.66-1-3.34,2.33-6.47,5.42-7,9.24a33.46,33.46,0,0,0-.37,5c-1.81,1.17-14.12,8.87-14.62,8.8.08-6.42.22-11.6.22-20.6,6,3.5,4.4,2.6,7.9,4.6,0-5,.1-9.51.08-12.4.42-.6-.58.4,2.42-1.6-2.27-1.43-6-3-9-5C131.11,140.44,142.57,99.68,144.6,91.24Zm-3.53,54.43v1.69c-.16,2,.37,2.6,2.32,1.42q11.45-6.92,23-13.66a8.87,8.87,0,0,0,4.26-6c.36-1.55.79-3.1,1-4.67,1-6.83,3.52-12.51,10.83-14.9,2.2-.72,3.06-2.75,3.11-5.19.15-8,.41-16,.73-23.94.15-3.7-1.65-5-5-3.46-6.36,3-12.73,6-19,9.14a15,15,0,0,0-6.87,6.81c-1.81,3.57-2.36,7.5-3.5,11.25-2.51,8.24-4.92,16.52-7,24.88C143.53,134.55,141,139.83,141.07,145.67Z" transform="translate(0.02 0)"/><path class="b" d="M137.53,147.63c.19,4.26.07,12.37.07,12.37s-8.1-4.89-8.1-4.7c-.11,6.42,0,14.41-.05,20.83-4.38-2.18-1.38-.69-4.3-2.2.31-13.31.42-20.85.42-20.85l-3.2-2s-.3,17.83-.3,21.39c-3.88-2.24-14.07-7.39-16.57-8.89.11-6.85-.14-16.66,0-23.5a21.46,21.46,0,0,1-3.43-1.78s.07,17.54,0,23.28c-4-2-8-4.5-8-4.5v-23l-16-9v-10S131.44,144.31,137.53,147.63Z" transform="translate(0.02 0)"/><path class="b" d="M193.29,129.85c2.46,1.62,3.61,4.47,3.64,7.57A21.32,21.32,0,0,1,188.66,155c-3.22,2.61-8.66,3-11.66,0-4,3-13.24,9.44-14,11-.87,1.78-.5,1.5-2.5,5.5-1.28,2.55-4.84,5.17-6.71,6.28-1.58.94-4.06.74-5.79.22-3.72,2-7,4-7,4s-8-4-11.6-6c12.64-7.86,6.6-4,14.6-9-1-6,3-11,7.34-14A9.3,9.3,0,0,1,163,154c3.59-2.38,9.38-6.66,13-9,1.68-8.35,7.05-14.19,12-15.5C189.51,129.1,192,129,193.29,129.85Z" transform="translate(0.02 0)"/><path class="c" d="M106.42,127.6a28.75,28.75,0,0,1-2.87-1.6S104,53,104,50c.28.11,3.5,2.47,3.5,2.47S106.43,123.93,106.42,127.6Z" transform="translate(0.02 0)"/><path class="c" d="M127.3,62c0,5-1.3,76.3-1.3,76.3s0,.41-2.64-1.3c.1-3.73.64-76,.64-77" transform="translate(0.02 0)"/><path class="c" d="M102,138.3l3.5,1.7v23.6s-2.21-1.29-3.5-2.1C102.32,154.76,102,145.05,102,138.3Z" transform="translate(0.02 0)"/><path class="c" d="M141.8,56.7c0,2.8.2,9.3.2,9.3l-4,2V58A21,21,0,0,0,141.8,56.7Z" transform="translate(0.02 0)"/><path class="b" d="M141.07,145.67c0-5.84,2.46-11.12,3.83-16.64,2.09-8.36,4.5-16.64,7-24.88,1.14-3.75,1.69-7.68,3.5-11.25a15,15,0,0,1,6.87-6.81c6.3-3.09,12.67-6.09,19-9.09,3.37-1.6,5.17-.25,5,3.45-.32,8-.58,16-.73,23.94,0,2.44-.91,4.47-3.11,5.19-7.31,2.39-9.78,8.07-10.83,14.9-.24,1.58-.67,3.12-1,4.67a8.87,8.87,0,0,1-4.26,6q-11.52,6.76-23,13.66c-2,1.18-2.48.61-2.32-1.42A16.51,16.51,0,0,0,141.07,145.67Z" transform="translate(0.02 0)"/><polygon class="c" points="122.42 151 125.52 153 125.12 173.85 122.02 172.4 122.42 151"/><polygon class="b" points="80.02 152 80.02 161 91.02 167 58.52 195.5 60.52 196.3 101.02 170 101.02 174 111.02 180 82.62 208.2 85.02 209.65 124.02 184 124.02 188 138.02 195 138.02 184 80.02 152"/><polygon class="c" points="138.02 184 141.02 182 141.02 193 138.02 195 138.02 184"/><polygon class="c" points="101.02 170 101.02 174 60.52 197.5 60.52 196.3 101.02 170"/><polygon class="c" points="124.02 183.65 124.02 187.65 85.02 210.65 85.02 209.65 124.02 183.65"/></svg>