<svg xmlns="http://www.w3.org/2000/svg" viewBox="0 0 256.02 256"><defs><style>.a{fill:#06183d;}.b{fill:#cccccc;}.c{fill:#fefefe;}</style></defs><path class="a" d="M256,127.83c1.3,70.64-57.76,126.89-125,128.15C57.68,257.35.24,197.59,0,128.52-.24,57.93,58.09,0,128.17,0,197.84,0,257.3,57.93,256,127.83Z" transform="translate(0)"/><path class="b" d="M125.94,82.28c6.4-3.27,13.35-5.1,20-7.69,4.34-1.68,8.74-3.2,13.17-4.82-.56-1-1.43-.72-2.09-.74q-18.53-.54-37-1c-3.81-.1-4-.24-3.23-3.94,1-4.83,4.77-6.9,8.65-8.84a32.37,32.37,0,0,0,4.91-2.91c.51-.38,1.18-.83,1-1.59s-.89-.58-1.43-.64a2.81,2.81,0,0,1-2.72-2.84c-.15-4.07-1.6-7.8-2.54-11.67a13.2,13.2,0,0,1,1.42-10c1-1.65,1.19-3.22,0-4.77-.92-1.23-.49-2.1.49-2.93.44-.37.86-.92,1.36-1,5.33-1,10.6-3.6,16.11-1.86,8.9,2.81,12.54,15.34,6.87,22.8-4.23,5.57-2.48,12,4.07,14.82,3.15,1.37,6.34,2.64,9.46,4.09,2.19,1,3.12,3,4.2,5.16,5,9.86,5.53,21.14,10.27,31.05,1,2.12.2,3.33-1.74,3.87-2.22.62-3,2-3.07,4.15-.47,10.9-5.28,20.35-10.24,29.73-.22.41-.45,1-.81,1.14-4.25,1.63-4.36,5.5-5.17,9.08-1.22,5.38-2.58,10.74-3.91,16.1a5.21,5.21,0,0,0,0,3.65,10.83,10.83,0,0,1,.69,6.71,5.6,5.6,0,0,0,.8,3.5c6.14,12.17,12.72,24.11,18.78,36.33,2.13,4.3,1.73,9.06,3.88,13.23.77,1.49.09,2.82-1.79,3.1-2.19.33-4.06,2.11-6.71.55-1.11-.65-3.09,1.18-4.34,2.32-4.67,4.27-10,4.13-15.64,2.69-1-.24-1.84-.49-2-1.69a2.32,2.32,0,0,1,1.49-2.51l7.57-4.06c2.14-1.13,2.69-2.5,1.47-4.86-4.1-8-8.52-15.77-11.85-24.11-.32-.79-.69-1.82-1.65-1.79s-.72,1.19-.95,1.85c-3.11,9-5.22,18.32-9.14,27-1.7,3.76-3.51,7.43-6.33,10.48a6.73,6.73,0,0,0-2,6.24c.34,1.77-.17,3.2-2.12,3.74-6.55,1.82-13.14,2.51-19.79.55-1.27-.37-2.81-.71-3.19-2.11-.45-1.63,1.23-2.17,2.21-3,4.25-3.52,9-6.52,11.46-11.8a7.81,7.81,0,0,0,1.13-2.9c-.07-3.75,1.6-6.79,3.55-9.76,2.92-4.44,2.17-9.57,2.75-14.44.25-2.46.62-4.91,1.11-7.33.81-3.58,1.22-7.09-.1-10.92-1.42-4.13.64-8.41,1.54-12.57A19.32,19.32,0,0,1,126,162a11.31,11.31,0,0,0-.58-10.28,35.84,35.84,0,0,1-4.55-16.07H122a.86.86,0,0,0,1.19.26l0,0,2.8.17c.48.12,1,.26.94-.51l-.07-2.18c.25-2.52.57-5-.22-7.52Q126.31,104,125.94,82.28Z" transform="translate(0)"/><path class="b" d="M99.31,134.09c2.91.13,5.83.52,8.74.65a5.94,5.94,0,0,1-7.25,1.73C99.88,136,98.94,135.42,99.31,134.09Z" transform="translate(0)"/><polygon class="c" points="42.45 78.53 125.94 82.27 127.01 136.11 43.66 130.11 42.45 78.53"/></svg>